<?xml version="1.0" encoding="UTF-8"?>
<svg width="32" height="32" viewBox="0 0 32 32" fill="none" xmlns="http://www.w3.org/2000/svg">
  <!-- Background Circle -->
  <circle cx="16" cy="16" r="16" fill="#4F46E5"/>
  
  <!-- SS Letters -->
  <path d="M12 11.5C12 10.6716 12.6716 10 13.5 10H18.5C19.3284 10 20 10.6716 20 11.5V12.5C20 13.3284 19.3284 14 18.5 14H13.5C12.6716 14 12 13.3284 12 12.5V11.5Z" fill="white"/>
  <path d="M12 19.5C12 18.6716 12.6716 18 13.5 18H18.5C19.3284 18 20 18.6716 20 19.5V20.5C20 21.3284 19.3284 22 18.5 22H13.5C12.6716 22 12 21.3284 12 20.5V19.5Z" fill="white"/>
  <path d="M13.5 14H18.5C19.3284 14 20 14.6716 20 15.5V16.5C20 17.3284 19.3284 18 18.5 18H13.5C12.6716 18 12 17.3284 12 16.5V15.5C12 14.6716 12.6716 14 13.5 14Z" fill="white"/>
</svg>